<?xml version="1.0" encoding="UTF-8" standalone="no"?>
<!DOCTYPE svg PUBLIC "-//W3C//DTD SVG 1.1//EN" "http://www.w3.org/Graphics/SVG/1.1/DTD/svg11.dtd">
<svg width="100%" height="100%" viewBox="0 0 200 200" version="1.1" xmlns="http://www.w3.org/2000/svg" xmlns:xlink="http://www.w3.org/1999/xlink" xml:space="preserve" xmlns:serif="http://www.serif.com/" style="fill-rule:evenodd;clip-rule:evenodd;stroke-linejoin:round;stroke-miterlimit:2;">
    <g transform="matrix(1,0,0,1,-1160,-265)">
        <path d="M1205.2,374.5C1205.2,375.6 1206.1,376.5 1207.2,376.5L1219.1,376.5C1232.3,400.4 1260.1,418.8 1261.6,419.8C1261.9,420 1262.3,420.1 1262.7,420.1C1263.1,420.1 1263.5,420 1263.8,419.8C1265.3,418.8 1293.1,400.4 1306.3,376.5L1318.2,376.5C1319.3,376.5 1320.2,375.6 1320.2,374.5C1320.2,373.4 1319.3,372.5 1318.2,372.5L1308.4,372.5C1311.4,366.1 1313.3,359.4 1313.3,352.6C1313.3,336.7 1300.4,323.8 1284.5,323.8C1276.2,323.8 1268.2,327.5 1262.8,333.7C1257.4,327.4 1249.4,323.8 1241.1,323.8C1225.2,323.8 1212.3,336.7 1212.3,352.6C1212.3,359.4 1214.2,366.1 1217.2,372.5L1207.4,372.5C1206.1,372.5 1205.2,373.4 1205.2,374.5ZM1262.7,415.8C1257.6,412.2 1235.6,396.3 1223.7,376.6L1231.1,376.6C1231.6,376.6 1232.1,376.4 1232.5,376L1242.5,366L1252.7,376.2C1253.2,376.7 1253.9,376.9 1254.6,376.7C1255.3,376.5 1255.8,376 1256,375.3L1260.2,359.4L1266.3,388.6C1266.5,389.5 1267.3,390.2 1268.2,390.2C1269.1,390.2 1269.9,389.6 1270.1,388.7L1273.9,374.1L1281.2,374.1C1282.2,374.1 1283,373.4 1283.2,372.4L1284.8,362.7L1288.2,382.2C1288.3,383 1288.9,383.6 1289.7,383.8C1290.5,384 1291.3,383.7 1291.8,383L1296.6,376.6L1301.7,376.6C1289.8,396.3 1267.9,412.2 1262.7,415.8ZM1216.2,352.6C1216.2,338.9 1227.3,327.8 1241,327.8C1248.9,327.8 1256.4,331.7 1261.1,338.1C1261.5,338.6 1262.1,338.9 1262.7,338.9C1263.3,338.9 1263.9,338.6 1264.3,338.1C1269,331.6 1276.5,327.8 1284.4,327.8C1298.1,327.8 1309.2,338.9 1309.2,352.6C1309.2,359.4 1307.1,366.1 1303.8,372.5L1295.5,372.5C1294.9,372.5 1294.3,372.8 1293.9,373.3L1291.3,376.8L1286.7,350.2C1286.5,349.2 1285.7,348.5 1284.7,348.5C1283.7,348.5 1282.9,349.2 1282.7,350.2L1279.5,369.9L1272.4,369.9C1271.5,369.9 1270.7,370.5 1270.5,371.4L1268.5,379.2L1262.5,350.1C1262.3,349.2 1261.5,348.5 1260.6,348.5C1259.7,348.5 1258.9,349.1 1258.6,350L1253.1,370.7L1244,361.6C1243.2,360.8 1242,360.8 1241.2,361.6L1230.4,372.4L1221.6,372.4C1218.3,366.1 1216.2,359.4 1216.2,352.6Z" style="fill:rgb(96,96,96);fill-rule:nonzero;"/>
    </g>
</svg>
