<?xml version="1.0" encoding="UTF-8" standalone="no"?>
<!DOCTYPE svg PUBLIC "-//W3C//DTD SVG 1.1//EN" "http://www.w3.org/Graphics/SVG/1.1/DTD/svg11.dtd">
<svg width="100%" height="100%" viewBox="0 0 200 200" version="1.1" xmlns="http://www.w3.org/2000/svg" xmlns:xlink="http://www.w3.org/1999/xlink" xml:space="preserve" xmlns:serif="http://www.serif.com/" style="fill-rule:evenodd;clip-rule:evenodd;stroke-linejoin:round;stroke-miterlimit:2;">
    <g transform="matrix(1,0,0,1,-1160,-32)">
        <path d="M1333,170.1L1325.8,170.1C1327.8,167.1 1327.9,163 1325.8,159.9L1306.5,132.3C1304.1,128.7 1300.4,126.3 1296.1,125.5C1291.9,124.7 1287.6,125.6 1284,128.1L1261.9,143.2L1249,124.3L1261.5,93.7C1262.6,91 1262.4,88 1261.1,85.7C1259,82.2 1254.9,80.5 1251,81.7L1225.4,89.4C1222.7,87.9 1219.7,87.2 1216.6,87.2C1206.4,87.2 1198.1,95.5 1198.1,105.7C1198.1,115.9 1206.4,124.2 1216.6,124.2C1217.5,124.2 1218.4,124.1 1219.3,124C1218.7,125.2 1218.3,126.6 1218,127.9C1217.2,132.2 1218.1,136.5 1220.6,140.1L1240.4,169C1240.7,169.4 1241,169.8 1241.3,170.1L1192.5,170.1C1191.4,170.1 1190.5,171 1190.5,172.1C1190.5,173.2 1191.4,174.1 1192.5,174.1L1333,174.1C1334.1,174.1 1335,173.2 1335,172.1C1335,171 1334.1,170.1 1333,170.1ZM1202.1,105.7C1202.1,97.7 1208.6,91.2 1216.6,91.2C1217.4,91.2 1218.1,91.3 1218.9,91.4L1217.5,91.8C1213,93.2 1210.2,97.7 1211.1,102.1C1211.6,104.5 1213.1,106.6 1215.2,107.9C1217.3,109.2 1219.9,109.5 1222.2,108.8L1231,106.1C1230.9,110.2 1229.1,113.9 1226.2,116.5L1224.7,117.5C1224.3,117.8 1223.9,118.1 1223.5,118.4C1221.4,119.5 1219.1,120.2 1216.6,120.2C1208.6,120.2 1202.1,113.7 1202.1,105.7ZM1235,104.8L1238.4,103.8L1236,109.8L1234.3,110.9C1234.8,109.2 1235.1,107.5 1235.1,105.7C1235,105.4 1235,105.1 1235,104.8ZM1223.8,137.8C1222,135.1 1221.3,131.8 1221.9,128.6C1222.4,125.8 1223.8,123.4 1225.9,121.6C1226.9,121 1227.8,120.3 1228.7,119.6L1238.2,113.1C1238.7,112.9 1239.1,112.5 1239.3,112L1243.6,101.5C1243.9,100.8 1243.7,100 1243.2,99.4C1242.7,98.8 1241.9,98.6 1241.1,98.8L1220.9,104.9C1219.6,105.3 1218.2,105.1 1217.1,104.4C1215.9,103.7 1215.1,102.6 1214.9,101.3C1214.4,98.9 1216,96.4 1218.5,95.7L1252,85.6C1254.1,85 1256.4,85.9 1257.5,87.8C1258.2,89.1 1258.3,90.7 1257.7,92.3L1244.8,123.9C1244.5,124.5 1244.6,125.2 1245,125.8L1259.7,147.2C1260.3,148.1 1261.6,148.3 1262.5,147.7L1286.3,131.4C1289,129.6 1292.2,128.9 1295.4,129.5C1298.6,130.1 1301.4,131.9 1303.2,134.6L1322.5,162.2C1324.1,164.5 1323.5,167.7 1321.2,169.3C1320.4,169.9 1319.4,170.2 1318.4,170.2C1318.1,170.2 1317.7,170.2 1317.4,170.1C1316.1,169.9 1314.9,169.1 1314.1,168L1294.8,140.4C1294.4,139.8 1293.8,139.5 1293.2,139.5C1292.8,139.5 1292.4,139.6 1292.1,139.9L1250.8,168.2C1249.7,169 1248.3,169.3 1247,169C1245.7,168.8 1244.5,168 1243.7,166.9L1223.8,137.8ZM1292.6,144.2L1310.7,170.2L1254.7,170.2L1292.6,144.2Z" style="fill:rgb(96,96,96);fill-rule:nonzero;"/>
    </g>
</svg>
