<?xml version="1.0" encoding="UTF-8" standalone="no"?>
<!DOCTYPE svg PUBLIC "-//W3C//DTD SVG 1.1//EN" "http://www.w3.org/Graphics/SVG/1.1/DTD/svg11.dtd">
<svg width="100%" height="100%" viewBox="0 0 200 200" version="1.1" xmlns="http://www.w3.org/2000/svg" xmlns:xlink="http://www.w3.org/1999/xlink" xml:space="preserve" xmlns:serif="http://www.serif.com/" style="fill-rule:evenodd;clip-rule:evenodd;stroke-linejoin:round;stroke-miterlimit:2;">
    <g transform="matrix(1,0,0,1,-879,-763)">
        <path d="M1008.7,831.9C1006.8,830.2 1004.2,829.4 1001.7,829.7C1001.7,829.7 997.9,830.3 993.5,831C991.9,831.3 990.3,831.5 988.7,831.6C990.9,829.8 993.2,827.4 994.8,824.2C998.9,816.2 996.7,807.1 996.6,806.7C996.5,806.1 996.1,805.7 995.6,805.4C995.1,805.1 994.5,805.1 993.9,805.3C993.5,805.4 984.8,809 980.7,816.9C980.2,817.9 979.8,818.9 979.5,819.9C978.4,817.5 976.9,815.1 974.8,813C974,812.2 972.8,812.2 972,813C971.2,813.8 971.2,815 972,815.8C976.5,820.3 978,827.1 978.4,831C978.4,831.3 978.5,831.6 978.5,831.8L978.5,831.9C974.9,831.8 971.3,831.5 967.8,830.9C963.4,830.2 959.6,829.6 959.6,829.6C957,829.2 954.5,830 952.6,831.8C942.1,841.5 936.2,854.7 936,869C935.8,883.3 941.4,896.6 951.6,906.6L954.5,909.4C958.7,913.5 964.2,915.7 970.1,915.7C974,915.7 977.8,914.4 980.7,911.9C983.7,914.4 987.4,915.7 991.3,915.7C997.1,915.7 1002.7,913.5 1006.9,909.4L1009.8,906.6C1020.1,896.6 1025.6,883.3 1025.4,869C1025.1,854.8 1019.2,841.6 1008.7,831.9ZM984.3,819C986.5,814.7 990.6,811.8 993.1,810.4C993.4,813.3 993.4,818.2 991.2,822.6C989,826.9 984.9,829.8 982.4,831.2L982.4,830.9C982.2,827.9 982.2,823.2 984.3,819ZM1006.9,903.8L1004,906.6C1000.6,909.9 996,911.8 991.2,911.8C987.7,911.8 984.4,910.4 982,907.9C981.6,907.5 981.1,907.3 980.6,907.3C980.1,907.3 979.5,907.5 979.2,907.9C976.8,910.4 973.5,911.8 970,911.8C965.2,911.8 960.7,910 957.2,906.6L954.3,903.8C944.8,894.6 939.7,882.3 939.9,869.1C940.1,855.9 945.5,843.7 955.2,834.8C956.2,833.9 957.6,833.5 958.9,833.7C958.9,833.7 962.7,834.3 967.1,835C971.7,835.7 976.2,836.1 980.8,836.1C985.2,836.1 989.6,835.7 994,835C998.4,834.3 1002.2,833.7 1002.2,833.7C1003.5,833.5 1004.9,833.9 1005.9,834.8C1015.6,843.7 1021,855.9 1021.2,869.1C1021.5,882.3 1016.4,894.7 1006.9,903.8Z" style="fill:rgb(96,96,96);fill-rule:nonzero;"/>
    </g>
</svg>
