<?xml version="1.0" encoding="UTF-8" standalone="no"?>
<!DOCTYPE svg PUBLIC "-//W3C//DTD SVG 1.1//EN" "http://www.w3.org/Graphics/SVG/1.1/DTD/svg11.dtd">
<svg width="100%" height="100%" viewBox="0 0 200 200" version="1.1" xmlns="http://www.w3.org/2000/svg" xmlns:xlink="http://www.w3.org/1999/xlink" xml:space="preserve" xmlns:serif="http://www.serif.com/" style="fill-rule:evenodd;clip-rule:evenodd;stroke-linejoin:round;stroke-miterlimit:2;">
    <g transform="matrix(1,0,0,1,-312,-275)">
        <path d="M387.9,335.7C387.9,335.2 387.7,334.7 387.3,334.3L382.6,329.6C381.8,328.8 380.6,328.8 379.8,329.6L368.2,341.2C367.8,341.6 367.6,342.1 367.6,342.6C367.6,343.1 367.8,343.6 368.2,344L372.9,348.7C373.3,349.1 373.8,349.3 374.3,349.3C374.8,349.3 375.3,349.1 375.7,348.7L376.8,347.6L380.7,351.5C374.8,359.4 371.2,369.2 371.2,379.8C371.2,405.8 392.3,426.9 418.3,426.9C444.3,426.9 465.4,405.8 465.4,379.8C465.4,356.1 447.8,336.4 424.9,333.2L424.9,327.7L426.5,327.7C427.6,327.7 428.5,326.8 428.5,325.7L428.5,319.1C428.5,318 427.6,317.1 426.5,317.1L410.1,317.1C409,317.1 408.1,318 408.1,319.1L408.1,325.7C408.1,326.8 409,327.7 410.1,327.7L411.7,327.7L411.7,333.2C403.6,334.3 396.2,337.5 390,342.2L386.1,338.3L387.2,337.2C387.7,336.8 387.9,336.3 387.9,335.7ZM461.4,377.8L459,377.8C457.9,377.8 457,378.7 457,379.8C457,380.9 457.9,381.8 459,381.8L461.4,381.8C460.4,404 442.5,421.8 420.3,422.9L420.3,420.5C420.3,419.4 419.4,418.5 418.3,418.5C417.2,418.5 416.3,419.4 416.3,420.5L416.3,422.9C394.1,421.9 376.3,404 375.2,381.8L377.6,381.8C378.7,381.8 379.6,380.9 379.6,379.8C379.6,378.7 378.7,377.8 377.6,377.8L375.2,377.8C376.2,355.6 394.1,337.8 416.3,336.7L416.3,339.1C416.3,340.2 417.2,341.1 418.3,341.1C419.4,341.1 420.3,340.2 420.3,339.1L420.3,336.7C442.5,337.8 460.4,355.6 461.4,377.8ZM412.1,321.1L424.5,321.1L424.5,323.7L423,323.7L413.8,323.7L412.2,323.7L412.2,321.1L412.1,321.1ZM415.8,327.7L421,327.7L421,332.8C420.1,332.8 419.3,332.7 418.4,332.7C417.5,332.7 416.7,332.7 415.8,332.8L415.8,327.7ZM383.3,348.4L379.7,344.8L383.4,341.1L387,344.7C385.7,345.9 384.4,347.1 383.3,348.4ZM372.4,342.7L381.2,333.9L383.1,335.8L374.3,344.6L372.4,342.7Z" style="fill:rgb(96,96,96);fill-rule:nonzero;"/>
        <path d="M422.7,372.6C421.4,371.8 419.9,371.4 418.3,371.4C413.7,371.4 409.9,375.2 409.9,379.8C409.9,384.4 413.7,388.2 418.3,388.2C422.9,388.2 426.7,384.4 426.7,379.8C426.7,378.2 426.2,376.7 425.5,375.4L442.1,358.8C442.9,358 442.9,356.8 442.1,356C441.3,355.2 440.1,355.2 439.3,356L422.7,372.6ZM418.4,384.2C416,384.2 414,382.2 414,379.8C414,377.4 416,375.4 418.4,375.4C420.8,375.4 422.8,377.4 422.8,379.8C422.8,382.2 420.8,384.2 418.4,384.2Z" style="fill:rgb(96,96,96);fill-rule:nonzero;"/>
    </g>
</svg>
