<?xml version="1.0" encoding="UTF-8" standalone="no"?>
<!DOCTYPE svg PUBLIC "-//W3C//DTD SVG 1.1//EN" "http://www.w3.org/Graphics/SVG/1.1/DTD/svg11.dtd">
<svg width="100%" height="100%" viewBox="0 0 200 200" version="1.1" xmlns="http://www.w3.org/2000/svg" xmlns:xlink="http://www.w3.org/1999/xlink" xml:space="preserve" xmlns:serif="http://www.serif.com/" style="fill-rule:evenodd;clip-rule:evenodd;stroke-linejoin:round;stroke-miterlimit:2;">
    <g transform="matrix(1,0,0,1,-596,-517)">
        <path d="M731.3,664.1L745.2,664.1C746.3,664.1 747.2,663.2 747.2,662.1L747.2,632.1L749.2,632.1C750.3,632.1 751.2,631.2 751.2,630.1L751.2,620.1C751.2,619 750.3,618.1 749.2,618.1L740.2,618.1L740.2,583.7C740.2,575.3 733.4,568.5 725,568.5C716.6,568.5 709.8,575.3 709.8,583.7L709.8,633C709.8,639.2 704.8,644.2 698.6,644.2C692.4,644.2 687.4,639.2 687.4,633L687.4,583.7C687.4,575.3 680.6,568.5 672.2,568.5C663.8,568.5 657,575.3 657,583.7L657,618.1L648,618.1C646.9,618.1 646,619 646,620.1L646,630.1C646,631.2 646.9,632.1 648,632.1L650,632.1L650,662.1C650,663.2 650.9,664.1 652,664.1L665.9,664.1C667,664.1 667.9,663.2 667.9,662.1L667.9,632.1L669.9,632.1C671,632.1 671.9,631.2 671.9,630.1L671.9,620.1C671.9,619 671,618.1 669.9,618.1L660.9,618.1L660.9,583.7C660.9,577.5 665.9,572.5 672.1,572.5C678.3,572.5 683.3,577.5 683.3,583.7L683.3,633C683.3,641.4 690.1,648.2 698.5,648.2C706.9,648.2 713.7,641.4 713.7,633L713.7,583.7C713.7,577.5 718.7,572.5 724.9,572.5C731.1,572.5 736.1,577.5 736.1,583.7L736.1,618.1L727.1,618.1C726,618.1 725.1,619 725.1,620.1L725.1,630.1C725.1,631.2 726,632.1 727.1,632.1L729.1,632.1L729.1,662.1C729.3,663.2 730.2,664.1 731.3,664.1ZM663.9,660.1L654,660.1L654,632.1L663.9,632.1L663.9,660.1ZM667.9,628.1L665.9,628.1L652,628.1L650,628.1L650,622.1L667.9,622.1L667.9,628.1ZM743.2,660.1L733.3,660.1L733.3,632.1L743.2,632.1L743.2,660.1ZM729.3,622.1L747.2,622.1L747.2,628.1L745.2,628.1L731.3,628.1L729.3,628.1L729.3,622.1Z" style="fill:rgb(96,96,96);fill-rule:nonzero;"/>
    </g>
</svg>
