<?xml version="1.0" encoding="UTF-8" standalone="no"?>
<!DOCTYPE svg PUBLIC "-//W3C//DTD SVG 1.1//EN" "http://www.w3.org/Graphics/SVG/1.1/DTD/svg11.dtd">
<svg width="100%" height="100%" viewBox="0 0 200 200" version="1.1" xmlns="http://www.w3.org/2000/svg" xmlns:xlink="http://www.w3.org/1999/xlink" xml:space="preserve" xmlns:serif="http://www.serif.com/" style="fill-rule:evenodd;clip-rule:evenodd;stroke-linejoin:round;stroke-miterlimit:2;">
    <g transform="matrix(1,0,0,1,-881,-271)">
        <path d="M930.3,388.2C932.4,388.2 934.5,387.4 936.1,385.8L940.2,381.7L961.9,403.4L957.8,407.5C956.3,409 955.4,411.1 955.4,413.3C955.4,415.5 956.2,417.5 957.8,419.1L967.2,428.5C968.7,430 970.8,430.9 973,430.9C975.2,430.9 977.2,430.1 978.8,428.5L999.5,407.8C1002.7,404.6 1002.7,399.4 999.5,396.3L990.1,386.9C986.9,383.7 981.7,383.7 978.6,386.9L974.5,391L952.8,369.3L956.9,365.2C958.4,363.7 959.3,361.6 959.3,359.4C959.3,357.2 958.5,355.2 956.9,353.6L947.5,344.2C946,342.7 943.9,341.8 941.7,341.8C939.5,341.8 937.5,342.6 935.9,344.2L915.2,364.9C912,368.1 912,373.3 915.2,376.4L924.6,385.8C926.2,387.4 928.2,388.2 930.3,388.2ZM981.3,389.6C982.1,388.8 983.2,388.4 984.2,388.4C985.3,388.4 986.3,388.8 987.1,389.6L996.5,399C998.1,400.6 998.1,403.3 996.5,404.9L975.8,425.6C974.2,427.2 971.5,427.2 969.9,425.6L960.5,416.2C959.7,415.4 959.3,414.4 959.3,413.3C959.3,412.2 959.7,411.1 960.5,410.4L981.3,389.6ZM949.8,372.1L971.5,393.8L964.7,400.6L943,378.9L946.4,375.5L949.8,372.1ZM918,367.7L938.7,347C939.5,346.2 940.5,345.8 941.6,345.8C942.7,345.8 943.8,346.2 944.5,347L953.9,356.4C954.7,357.2 955.1,358.2 955.1,359.3C955.1,360.4 954.7,361.5 953.9,362.2L933.3,383C931.7,384.6 929,384.6 927.4,383L918,373.6C916.4,372 916.4,369.4 918,367.7Z" style="fill:rgb(96,96,96);fill-rule:nonzero;"/>
        <path d="M1036.7,358.2C1035.2,356.7 1033.1,355.8 1030.9,355.8C1028.7,355.8 1026.7,356.6 1025.1,358.2L1021,362.3L999.3,340.6L1003.4,336.5C1006.6,333.3 1006.6,328.1 1003.4,325L994,315.6C990.8,312.4 985.6,312.4 982.5,315.6L961.8,336.3C960.3,337.8 959.4,339.9 959.4,342.1C959.4,344.3 960.2,346.3 961.8,347.9L971.2,357.3C972.7,358.8 974.8,359.7 977,359.7C979.2,359.7 981.2,358.9 982.8,357.3L986.9,353.2L1008.6,374.9L1004.5,379C1001.3,382.2 1001.3,387.4 1004.5,390.5L1013.9,399.9C1015.5,401.5 1017.6,402.3 1019.7,402.3C1021.8,402.3 1023.9,401.5 1025.5,399.9L1046.2,379.2C1047.7,377.7 1048.6,375.6 1048.6,373.4C1048.6,371.2 1047.8,369.2 1046.2,367.6L1036.7,358.2ZM980,354.4C978.4,356 975.7,356 974.1,354.4L964.7,345C963.9,344.2 963.5,343.2 963.5,342.1C963.5,341 963.9,339.9 964.7,339.2L985.4,318.5C986.2,317.7 987.3,317.3 988.3,317.3C989.4,317.3 990.4,317.7 991.2,318.5L1000.6,327.9C1002.2,329.5 1002.2,332.2 1000.6,333.8L995.1,339.3L990.3,344.1L980,354.4ZM989.8,350.2L993.2,346.8L996.6,343.4L1018.3,365.1L1011.5,371.9L989.8,350.2ZM1043.3,376.3L1022.6,397C1021,398.6 1018.3,398.6 1016.7,397L1007.3,387.6C1005.7,386 1005.7,383.3 1007.3,381.7L1012.8,376.2L1022.4,366.6L1027.9,361.1C1028.7,360.3 1029.7,359.9 1030.8,359.9C1031.9,359.9 1033,360.3 1033.7,361.1L1043.1,370.5C1043.9,371.3 1044.3,372.3 1044.3,373.4C1044.5,374.4 1044.1,375.5 1043.3,376.3Z" style="fill:rgb(96,96,96);fill-rule:nonzero;"/>
    </g>
</svg>
